<svg width="13" height="7" viewBox="0 0 13 7" fill="none" xmlns="http://www.w3.org/2000/svg">
<path d="M12.5 6.79401C12.3254 6.86007 12.1326 6.85992 11.958 6.7936C11.7835 6.72728 11.6392 6.59938 11.5525 6.43401L9.82751 4.04851L9.57751 3.71501L7.57601 6.43701C7.4945 6.59544 7.35808 6.71876 7.19226 6.78391C7.02643 6.84906 6.84256 6.85158 6.67501 6.79101L9.25401 3.33101L6.85501 0.205511C7.0275 0.143349 7.21615 0.142525 7.38919 0.203178C7.56222 0.263831 7.70907 0.382256 7.80501 0.538512L9.59301 2.95351L11.391 0.548512C11.4731 0.392905 11.6096 0.272906 11.7744 0.211326C11.9393 0.149746 12.121 0.15088 12.285 0.214512L11.354 1.45001L10.093 3.09151C10.058 3.12275 10.03 3.16104 10.0108 3.20386C9.99159 3.24669 9.98167 3.29309 9.98167 3.34001C9.98167 3.38694 9.99159 3.43334 10.0108 3.47616C10.03 3.51899 10.058 3.55727 10.093 3.58851L12.495 6.79451L12.5 6.79401ZM0.501006 3.28801L0.711006 2.25051C1.28801 0.199012 3.64001 -0.654488 5.25801 0.615512C6.20551 1.36001 6.44201 2.41401 6.39551 3.60201H1.05801C0.971506 5.72351 2.50251 7.00451 4.46001 6.35001C4.77734 6.23579 5.06138 6.04463 5.28668 5.79367C5.51199 5.54271 5.67153 5.23978 5.75101 4.91201C5.85451 4.57901 6.02501 4.52201 6.33801 4.61801C6.28585 5.0242 6.14226 5.41328 5.91804 5.75597C5.69382 6.09866 5.39481 6.38605 5.04351 6.59651C4.46321 6.91393 3.79742 7.03973 3.14132 6.95595C2.48522 6.87216 1.87241 6.58307 1.39051 6.13001C0.914021 5.59371 0.626044 4.91626 0.570506 4.20101C0.570506 4.08351 0.530506 3.97351 0.503506 3.86801C0.501072 3.67486 0.499905 3.48168 0.500006 3.28851L0.501006 3.28801ZM1.06451 3.14501H5.89151C5.86151 1.60701 4.89101 0.516012 3.59651 0.506012C2.15551 0.486012 1.12451 1.55301 1.06101 3.13801L1.06451 3.14501Z" fill="#F7F3F3"/>
</svg>
