<svg width="20" height="18" viewBox="0 0 20 18" fill="none" xmlns="http://www.w3.org/2000/svg">
<path d="M10 0V1M10 17V18M19 9H18M2 9H1M16.364 15.364L15.657 14.657M4.343 3.343L3.636 2.636M16.364 2.636L15.657 3.343M4.343 14.657L3.636 15.364M14 9C14 10.0609 13.5786 11.0783 12.8284 11.8284C12.0783 12.5786 11.0609 13 10 13C8.93913 13 7.92172 12.5786 7.17157 11.8284C6.42143 11.0783 6 10.0609 6 9C6 7.93913 6.42143 6.92172 7.17157 6.17157C7.92172 5.42143 8.93913 5 10 5C11.0609 5 12.0783 5.42143 12.8284 6.17157C13.5786 6.92172 14 7.93913 14 9Z" stroke="#F7F3F3" stroke-width="2" stroke-linecap="round" stroke-linejoin="round"/>
</svg>
