<svg width="16" height="17" viewBox="0 0 16 17" fill="none" xmlns="http://www.w3.org/2000/svg">
<path d="M8 9.18667C8.65722 9.18667 9.19 8.65389 9.19 7.99667C9.19 7.33945 8.65722 6.80667 8 6.80667C7.34278 6.80667 6.81 7.33945 6.81 7.99667C6.81 8.65389 7.34278 9.18667 8 9.18667Z" fill="#F7F3F3"/>
<path d="M4.66799 10.3627L4.40466 10.2953C2.44866 9.80134 1.32666 8.96134 1.32666 7.994C1.32666 7.026 2.44933 6.18667 4.40466 5.69267L4.66799 5.626L4.74199 5.88667C4.93969 6.56913 5.19298 7.23425 5.49933 7.87534L5.55599 7.994L5.49933 8.11267C5.19266 8.75467 4.93866 9.42 4.74199 10.1027L4.66799 10.3627ZM4.28333 6.29934C2.79733 6.718 1.88466 7.35667 1.88466 7.994C1.88466 8.63 2.79666 9.26934 4.28333 9.68734C4.46533 9.10867 4.68533 8.54267 4.93999 7.994C4.68348 7.44442 4.4641 6.87826 4.28333 6.29934ZM11.3313 10.3627L11.258 10.1013C11.0598 9.41874 10.8063 8.75343 10.5 8.112L10.4433 7.994L10.5 7.87467C10.8067 7.234 11.0593 6.568 11.258 5.88534L11.3313 5.62534L11.5947 5.692C13.5513 6.186 14.6727 7.02534 14.6727 7.994C14.6727 8.962 13.5507 9.80134 11.5947 10.2953L11.3313 10.3627ZM11.058 7.994C11.3247 8.57134 11.5467 9.13934 11.716 9.68734C13.2027 9.26934 14.1153 8.63 14.1153 7.994C14.1153 7.35667 13.2033 6.71867 11.716 6.29934C11.5342 6.87808 11.3144 7.4442 11.058 7.994Z" fill="#F7F3F3"/>
<path d="M4.27933 6.29667L4.20599 6.03667C3.65533 4.098 3.82199 2.70934 4.66399 2.22534C5.48733 1.74867 6.81199 2.312 8.19933 3.73534L8.38866 3.93L8.19933 4.124C7.70658 4.63646 7.25621 5.18805 6.85266 5.77334L6.77733 5.88134L6.64666 5.892C5.93705 5.94774 5.23316 6.06122 4.54199 6.23134L4.27933 6.29667ZM5.33399 2.61067C5.18466 2.61067 5.05266 2.64334 4.94133 2.70734C4.38933 3.02534 4.29199 4.13267 4.67199 5.62734C5.26599 5.496 5.86533 5.402 6.46933 5.34934C6.81901 4.85337 7.20047 4.3806 7.61133 3.934C6.74266 3.08934 5.92266 2.61067 5.33399 2.61067ZM10.6653 13.9333C9.87333 13.9333 8.85599 13.336 7.79999 12.252L7.61133 12.058L7.79999 11.8647C8.29282 11.3514 8.7434 10.7992 9.14733 10.2133L9.22199 10.1067L9.35133 10.094C10.0612 10.0393 10.7653 9.92621 11.4567 9.756L11.72 9.68934L11.794 9.95C12.342 11.8873 12.176 13.278 11.3353 13.762C11.1312 13.8777 10.8999 13.9368 10.6653 13.9333ZM8.38866 12.0533C9.25666 12.898 10.0773 13.3773 10.6653 13.3773C10.8153 13.3773 10.9473 13.344 11.058 13.2807C11.6107 12.962 11.7087 11.8527 11.3273 10.358C10.734 10.49 10.134 10.5847 9.52866 10.6373C9.18047 11.1341 8.79963 11.6071 8.38866 12.0533Z" fill="#F7F3F3"/>
<path d="M11.72 6.29666L11.4567 6.23066C10.7654 6.06002 10.0613 5.94653 9.35136 5.89133L9.22202 5.88L9.14736 5.772C8.74399 5.18639 8.29338 4.63477 7.80002 4.12266L7.61136 3.92866L7.80002 3.73533C9.18669 2.31266 10.5107 1.74933 11.3354 2.22533C12.1767 2.71 12.344 4.09866 11.794 6.03666L11.72 6.29666ZM9.52869 5.34933C10.1647 5.406 10.7674 5.50133 11.3274 5.62733C11.708 4.13266 11.6107 3.02533 11.058 2.70666C10.5087 2.38866 9.47469 2.87533 8.38869 3.934C8.79936 4.38066 9.18069 4.85266 9.52869 5.34933ZM5.33403 13.9333C5.09945 13.9367 4.8682 13.8775 4.66402 13.762C3.82202 13.278 3.65536 11.888 4.20536 9.95L4.27736 9.68933L4.54069 9.756C5.18336 9.918 5.89136 10.032 6.64603 10.094L6.77536 10.1067L6.85069 10.2133C7.25336 10.7987 7.70402 11.3513 8.19736 11.8647L8.38669 12.058L8.19736 12.252C7.14202 13.3367 6.12469 13.9333 5.33403 13.9333ZM4.67202 10.3587C4.29202 11.8533 4.38936 12.9627 4.94136 13.2813C5.49136 13.5947 6.52203 13.1113 7.61136 12.0533C7.20066 11.6066 6.8192 11.1338 6.46936 10.638C5.86475 10.5845 5.26434 10.4912 4.67202 10.3587Z" fill="#F7F3F3"/>
<path d="M8 10.7087C7.542 10.7087 7.072 10.6893 6.6 10.65L6.46934 10.6387L6.394 10.5307C6.12784 10.1479 5.87741 9.7545 5.64334 9.35134C5.411 8.94709 5.19504 8.53365 4.996 8.11201L4.94 7.99401L4.996 7.87467C5.19534 7.45334 5.41067 7.04001 5.64334 6.63601C5.87467 6.23867 6.12734 5.84134 6.394 5.45601L6.46934 5.34934L6.6 5.33734C7.53126 5.25934 8.46741 5.25934 9.39867 5.33734L9.528 5.35001L9.60334 5.45667C10.1365 6.22251 10.6048 7.03154 11.0033 7.87534L11.0587 7.99467L11.0033 8.11267C10.6059 8.95705 10.1376 9.76617 9.60334 10.5313L9.528 10.6393L9.39867 10.6507C8.928 10.6887 8.45734 10.7087 8 10.7087ZM6.77734 10.106C7.60067 10.168 8.39934 10.168 9.222 10.106C9.68126 9.43348 10.0895 8.72751 10.4433 7.99401C10.0908 7.25985 9.68246 6.55378 9.222 5.88201C8.40832 5.81934 7.59102 5.81934 6.77734 5.88201C6.3165 6.55354 5.90817 7.25963 5.556 7.99401C5.91059 8.7271 6.31881 9.43302 6.77734 10.106Z" fill="#F7F3F3"/>
</svg>
